<svg width="50" height="50" viewBox="0 0 50 50" fill="none" xmlns="http://www.w3.org/2000/svg">
<path d="M41.6665 8.33337H8.33317C6.0415 8.33337 4.18734 10.2084 4.18734 12.5L4.1665 37.5C4.1665 39.7917 6.0415 41.6667 8.33317 41.6667H41.6665C43.9582 41.6667 45.8332 39.7917 45.8332 37.5V12.5C45.8332 10.2084 43.9582 8.33337 41.6665 8.33337ZM40.8332 17.1875L26.104 26.3959C25.4373 26.8125 24.5623 26.8125 23.8957 26.3959L9.1665 17.1875C8.9576 17.0703 8.77467 16.9118 8.62877 16.7218C8.48288 16.5318 8.37705 16.3142 8.3177 16.0821C8.25836 15.85 8.24672 15.6082 8.2835 15.3715C8.32028 15.1348 8.4047 14.908 8.53167 14.7048C8.65864 14.5017 8.82551 14.3264 9.02218 14.1896C9.21885 14.0528 9.44124 13.9574 9.67587 13.909C9.9105 13.8606 10.1525 13.8604 10.3872 13.9083C10.622 13.9561 10.8446 14.0512 11.0415 14.1875L24.9998 22.9167L38.9582 14.1875C39.1551 14.0512 39.3777 13.9561 39.6124 13.9083C39.8472 13.8604 40.0892 13.8606 40.3238 13.909C40.5584 13.9574 40.7808 14.0528 40.9775 14.1896C41.1742 14.3264 41.341 14.5017 41.468 14.7048C41.595 14.908 41.6794 15.1348 41.7162 15.3715C41.753 15.6082 41.7413 15.85 41.682 16.0821C41.6226 16.3142 41.5168 16.5318 41.3709 16.7218C41.225 16.9118 41.0421 17.0703 40.8332 17.1875V17.1875Z" fill="#999999"/>
</svg>
