<svg width="50" height="46" viewBox="0 0 50 46" fill="none" xmlns="http://www.w3.org/2000/svg">
<g clip-path="url(#clip0)">
<path d="M24.3375 13.059L8.33317 26.4343V40.8701C8.33317 41.2438 8.4795 41.6023 8.73997 41.8666C9.00043 42.1309 9.3537 42.2794 9.72206 42.2794L19.4495 42.2538C19.8166 42.252 20.1681 42.1027 20.4271 41.8386C20.6861 41.5745 20.8314 41.2171 20.8314 40.8445V32.4142C20.8314 32.0404 20.9778 31.6819 21.2382 31.4176C21.4987 31.1533 21.852 31.0049 22.2203 31.0049H27.7759C28.1442 31.0049 28.4975 31.1533 28.758 31.4176C29.0184 31.6819 29.1648 32.0404 29.1648 32.4142V40.8384C29.1642 41.0238 29.1997 41.2075 29.2692 41.379C29.3388 41.5505 29.441 41.7064 29.57 41.8377C29.6991 41.9691 29.8524 42.0733 30.0211 42.1444C30.1899 42.2155 30.3709 42.2521 30.5537 42.2521L40.2776 42.2794C40.646 42.2794 40.9992 42.1309 41.2597 41.8666C41.5202 41.6023 41.6665 41.2438 41.6665 40.8701V26.4246L25.6656 13.059C25.4775 12.9052 25.2432 12.8213 25.0016 12.8213C24.76 12.8213 24.5256 12.9052 24.3375 13.059V13.059ZM49.6179 22.15L42.3609 16.0802V3.87998C42.3609 3.59965 42.2512 3.33081 42.0559 3.13258C41.8605 2.93436 41.5955 2.823 41.3193 2.823H36.4582C36.1819 2.823 35.9169 2.93436 35.7216 3.13258C35.5262 3.33081 35.4165 3.59965 35.4165 3.87998V10.2756L27.6448 3.7875C26.899 3.16474 25.9631 2.82424 24.9972 2.82424C24.0314 2.82424 23.0955 3.16474 22.3497 3.7875L0.376572 22.15C0.271093 22.2384 0.183825 22.3471 0.119756 22.4698C0.0556861 22.5925 0.0160705 22.7268 0.00317244 22.8651C-0.00972565 23.0033 0.00434649 23.1428 0.0445848 23.2755C0.0848232 23.4082 0.150439 23.5316 0.237683 23.6386L2.45123 26.3691C2.53823 26.4765 2.64525 26.5653 2.76615 26.6307C2.88706 26.696 3.01947 26.7365 3.15582 26.7498C3.29216 26.7632 3.42976 26.7491 3.56074 26.7084C3.69171 26.6677 3.81349 26.6012 3.91911 26.5127L24.3375 9.44765C24.5256 9.2938 24.76 9.20989 25.0016 9.20989C25.2432 9.20989 25.4775 9.2938 25.6656 9.44765L46.0849 26.5127C46.1903 26.6012 46.3119 26.6678 46.4427 26.7086C46.5735 26.7495 46.711 26.7637 46.8472 26.7506C46.9834 26.7376 47.1158 26.6974 47.2367 26.6323C47.3576 26.5673 47.4647 26.4788 47.5519 26.3718L49.7655 23.6412C49.8526 23.5336 49.918 23.4096 49.9577 23.2763C49.9975 23.143 50.0109 23.003 49.9972 22.8645C49.9835 22.7259 49.9429 22.5914 49.8778 22.4688C49.8127 22.3462 49.7244 22.2378 49.6179 22.15V22.15Z" fill="#999999"/>
</g>
<defs>
<clipPath id="clip0">
<rect width="50" height="45.098" fill="white"/>
</clipPath>
</defs>
</svg>
