<svg width="50" height="50" viewBox="0 0 50 50" fill="none" xmlns="http://www.w3.org/2000/svg">
<path d="M21.1388 28.6667C24.0381 31.6078 27.5462 33.8786 31.4166 35.3194L36.6527 31.1528C36.808 31.0459 36.992 30.9886 37.1805 30.9886C37.369 30.9886 37.553 31.0459 37.7083 31.1528L47.4305 37.4167C47.7996 37.6386 48.112 37.9433 48.3432 38.3067C48.5743 38.6701 48.7177 39.0822 48.7622 39.5106C48.8066 39.939 48.7509 40.3718 48.5993 40.7749C48.4477 41.178 48.2045 41.5404 47.8888 41.8333L43.3333 46.3333C42.6809 46.978 41.879 47.451 40.9993 47.7103C40.1196 47.9697 39.1894 48.0071 38.2916 47.8194C29.3364 45.9699 21.0821 41.6382 14.4722 35.3194C8.00896 28.9378 3.53644 20.8178 1.59717 11.9444C1.4056 11.0606 1.44558 10.1423 1.71325 9.27844C1.98092 8.4146 2.4672 7.63455 3.12495 7.01389L7.84717 2.45834C8.13939 2.15804 8.49576 1.92775 8.8896 1.7847C9.28344 1.64164 9.70453 1.58954 10.1214 1.63229C10.5382 1.67505 10.9399 1.81154 11.2965 2.03156C11.6531 2.25158 11.9553 2.54942 12.1805 2.90278L18.6527 12.5C18.7644 12.6507 18.8246 12.8333 18.8246 13.0208C18.8246 13.2084 18.7644 13.391 18.6527 13.5417L14.3888 18.6667C15.8688 22.4596 18.1746 25.8756 21.1388 28.6667V28.6667Z" fill="#999999"/>
</svg>
